<?xml version="1.0" encoding="UTF-8" standalone="no"?>
<!-- Created with Inkscape (http://www.inkscape.org/) -->

<svg
   xmlns:dc="http://purl.org/dc/elements/1.1/"
   xmlns:cc="http://creativecommons.org/ns#"
   xmlns:rdf="http://www.w3.org/1999/02/22-rdf-syntax-ns#"
   xmlns:svg="http://www.w3.org/2000/svg"
   xmlns="http://www.w3.org/2000/svg"
   xmlns:sodipodi="http://sodipodi.sourceforge.net/DTD/sodipodi-0.dtd"
   xmlns:inkscape="http://www.inkscape.org/namespaces/inkscape"
   width="790"
   height="620"
   viewBox="0 0 209.02084 164.04167"
   version="1.1"
   id="svg8"
   inkscape:version="0.92.5 (2060ec1f9f, 2020-04-08)"
   sodipodi:docname="logo-swan1.svg">
  <defs
     id="defs2">
    <clipPath
       clipPathUnits="userSpaceOnUse"
       id="clipPath4742">
      <path
         style="fill:#1f1f1f;fill-opacity:0.98564597;stroke:#000000;stroke-width:0.26458332px;stroke-linecap:butt;stroke-linejoin:miter;stroke-opacity:1"
         d="m 256.3918,126.32651 31.99218,90.36383 -59.86839,3.55468 0.37418,10.85114 71.65496,20.57977 22.26355,39.66279 14.78002,-6.36101 27.31492,11.03823 1.8709,-8.98025 11.78658,4.86429 6.36103,-41.53369 66.41648,-56.31368 -5.23849,-7.67064 -60.61673,19.45722 -18.89596,-38.72735 -24.69571,12.53495 -4.86431,31.61798 -13.47038,-1.4967 -55.56534,-86.99625 z"
         id="path4744"
         inkscape:connector-curvature="0" />
    </clipPath>
    <clipPath
       clipPathUnits="userSpaceOnUse"
       id="clipPath4748">
      <rect
         style="fill:#1f1f1f;fill-opacity:0.98564597;stroke-width:0.26458332"
         id="rect4750"
         width="210.21146"
         height="164.30624"
         x="234.01906"
         y="128.5042" />
    </clipPath>
  </defs>
  <sodipodi:namedview
     id="base"
     pagecolor="#ffffff"
     bordercolor="#666666"
     borderopacity="1.0"
     inkscape:pageopacity="0.0"
     inkscape:pageshadow="2"
     inkscape:zoom="0.70710678"
     inkscape:cx="78.543633"
     inkscape:cy="438.72906"
     inkscape:document-units="mm"
     inkscape:current-layer="layer1"
     showgrid="false"
     width="296mm"
     units="px"
     inkscape:window-width="3824"
     inkscape:window-height="2080"
     inkscape:window-x="8"
     inkscape:window-y="35"
     inkscape:window-maximized="0"
     showguides="false">
    <inkscape:grid
       type="xygrid"
       id="grid4579" />
  </sodipodi:namedview>
  <metadata
     id="metadata5">
    <rdf:RDF>
      <cc:Work
         rdf:about="">
        <dc:format>image/svg+xml</dc:format>
        <dc:type
           rdf:resource="http://purl.org/dc/dcmitype/StillImage" />
        <dc:title></dc:title>
      </cc:Work>
    </rdf:RDF>
  </metadata>
  <g
     inkscape:groupmode="layer"
     id="layer5"
     inkscape:label="Background"
     transform="translate(0,-47.625)" />
  <g
     inkscape:label="Foreground"
     inkscape:groupmode="layer"
     id="layer1"
     transform="translate(0,-132.95833)">
    <text
       xml:space="preserve"
       style="font-style:normal;font-weight:normal;font-size:10.58333302px;line-height:1.25;font-family:sans-serif;letter-spacing:0px;word-spacing:0px;fill:#000000;fill-opacity:1;stroke:none;stroke-width:0.26458332"
       x="-2.1251695"
       y="285.7366"
       id="text12"><tspan
         sodipodi:role="line"
         id="tspan10"
         x="-2.1251695"
         y="295.10037"
         style="font-style:normal;font-variant:normal;font-weight:normal;font-stretch:normal;font-size:50.79999924px;font-family:Ubuntu;-inkscape-font-specification:Ubuntu;fill:#000000;stroke-width:0.26458332" /></text>
    <ellipse
       style="fill:#1f1f1f;fill-opacity:0.96172252;stroke-width:0.26401055"
       id="path52"
       cx="-154.99013"
       cy="234.42575"
       rx="105.83231"
       ry="105.83166" />
    <text
       xml:space="preserve"
       style="font-style:normal;font-weight:normal;font-size:84.66666412px;line-height:1.25;font-family:sans-serif;letter-spacing:0px;word-spacing:0px;fill:#000000;fill-opacity:1;stroke:none;stroke-width:0.26458332"
       x="-269.53244"
       y="252.94514"
       id="text4569"><tspan
         sodipodi:role="line"
         id="tspan4567"
         x="-269.53244"
         y="252.94514"
         style="font-style:normal;font-variant:normal;font-weight:normal;font-stretch:normal;font-size:91.72222137px;font-family:Ubuntu;-inkscape-font-specification:Ubuntu;fill:#ffffff;stroke-width:0.26458332">&lt;aj/&gt;</tspan></text>
    <flowRoot
       xml:space="preserve"
       id="flowRoot4571"
       style="font-style:normal;font-weight:normal;font-size:40px;line-height:1.25;font-family:sans-serif;letter-spacing:0px;word-spacing:0px;fill:#000000;fill-opacity:1;stroke:none"
       transform="matrix(0.26458333,0,0,0.26458333,0,85.33333)"><flowRegion
         id="flowRegion4573"><rect
           id="rect4575"
           width="28.991379"
           height="82.024384"
           x="675.28699"
           y="267.54858" /></flowRegion><flowPara
         id="flowPara4577"></flowPara></flowRoot>    <path
       style="fill:#111111;fill-opacity:0;stroke-width:0.70710677"
       d="M 0.81671868,400.86819 V 2.7670708 H 399.9785 799.14027 V 400.86819 798.9693 H 399.9785 0.81671868 Z"
       id="path4769"
       inkscape:connector-curvature="0"
       transform="matrix(0.26458333,0,0,0.26458333,0,85.33333)" />
    <path
       style="fill:#1f1f10;fill-opacity:0;stroke-width:0.70710677"
       d="m 430.60547,689.32468 -36.54817,-14.81794 -27.79854,11.95881 -27.79855,11.9588 -1.15678,-1.87665 c -0.63622,-1.03216 -19.53114,-34.65105 -41.9887,-74.70864 -22.45756,-40.0576 -40.88108,-72.89633 -40.94117,-72.97494 -0.0601,-0.0786 -54.50981,-15.76563 -120.99941,-34.86002 C 66.884557,494.9097 10.336144,478.6529 7.7110098,477.87787 L 2.938039,476.46873 v -23.65814 c 0,-22.26043 0.074768,-23.65813 1.2655604,-23.65813 0.6960581,0 46.7332186,-2.70469 102.3048006,-6.01041 55.57158,-3.30572 101.17789,-6.01041 101.34735,-6.01041 0.16947,0 0.15802,-0.71594 -0.0255,-1.59099 C 207.64687,414.66561 181.95838,341.8778 150.74479,253.78998 119.5312,165.70215 93.252722,91.482455 92.34817,88.857321 L 90.703531,84.08435 h 27.059949 27.05995 l 97.78354,153.09711 c 53.78093,84.20341 98.0366,153.25352 98.34591,153.44468 0.61757,0.38168 51.05366,6.11655 51.23615,5.82585 0.0621,-0.099 4.22669,-27.00667 9.25453,-59.79482 l 9.14154,-59.61482 45.96194,-23.35231 c 25.27906,-12.84377 46.19756,-23.40537 46.48554,-23.47022 0.28799,-0.0648 16.45122,32.49616 35.91832,72.35782 19.46709,39.86166 35.61893,72.69995 35.89297,72.97399 0.36812,0.36813 189.97301,-59.95646 218.10922,-69.39352 l 4.06586,-1.36371 -0.0417,24.52559 -0.0417,24.5256 -111.003,94.03077 c -61.05168,51.71692 -111.5676,94.67366 -112.25761,95.45941 -0.99545,1.13356 -3.63382,17.05612 -12.77369,77.08907 -6.3355,41.61324 -11.72399,76.65202 -11.97441,77.86398 l -0.45588,2.20354 -21.13951,-8.73696 c -11.62673,-4.80532 -21.62212,-8.8198 -22.21199,-8.92106 -0.8416,-0.14447 -1.55019,2.09929 -3.29147,10.4225 l -2.21899,10.6066 -16.22766,0.13959 -16.22766,0.1396 z m 61.54495,4.92364 c 2.19618,-0.76559 2.22688,-0.841 2.23033,-5.48007 0.002,-2.58709 -0.37441,-8.75572 -0.8363,-13.70807 -0.46189,-4.95234 -0.61457,-9.22949 -0.33929,-9.50479 0.70984,-0.70982 4.27778,0.66976 16.23338,6.27684 16.12722,7.56353 22.94274,9.46784 27.35073,7.64199 2.69839,-1.11772 3.27433,-3.30059 3.82614,-14.50165 0.22992,-4.66691 1.07518,-13.57645 1.87837,-19.79899 1.39929,-10.84071 13.62242,-92.22371 16.01782,-106.64847 l 1.15353,-6.94641 7.13082,-6.17077 c 14.7029,-12.72342 88.85889,-74.65995 165.16918,-137.95253 40.56261,-33.64305 56.66131,-47.39154 59.6453,-50.93781 1.03012,-1.22427 1.87299,-2.93473 1.87299,-3.80102 0,-1.40025 -3.74534,-8.21592 -4.51481,-8.21592 -0.16688,0 -40.98278,13.8148 -90.70203,30.69955 -123.66947,41.99835 -131.84469,44.75832 -134.03547,45.25053 -1.8026,0.405 -2.14557,0.0385 -5.72458,-6.1166 -6.01129,-10.33817 -8.68391,-15.49447 -36.19627,-69.83348 -27.73223,-54.77326 -33.46815,-65.75892 -35.97815,-68.90677 l -1.5909,-1.99518 -10.91511,5.13493 c -20.7971,9.78383 -40.20001,19.78589 -40.89248,21.07979 -0.86673,1.61951 -5.97084,25.35507 -13.85068,64.40961 -5.9406,29.44318 -11.7988,57.24783 -13.16374,62.47879 l -0.69191,2.65165 -5.80638,-4e-5 c -6.13462,-3e-5 -51.36235,-4.21419 -64.41268,-6.00174 -5.62433,-0.77038 -7.95245,-1.38895 -8.65293,-2.29905 -0.52708,-0.68482 -9.67036,-14.13213 -20.31839,-29.88294 -18.77521,-27.77268 -32.99483,-49.20988 -123.35609,-185.96908 -52.78781,-79.89286 -64.1052,-96.501167 -66.34418,-97.360345 -1.97956,-0.759629 -10.16101,4.103293 -10.16101,6.039541 0,1.655936 16.9509,48.010264 44.90093,122.787054 25.16028,67.31321 62.70766,168.59558 71.03953,191.62594 3.93956,10.88944 7.62512,20.99867 8.19013,22.46495 1.62401,4.21445 1.37231,5.35108 -1.27079,5.73877 -2.6251,0.38504 -105.146,5.29992 -164.225548,7.87301 -44.405253,1.93398 -49.545252,2.28305 -50.444123,3.42575 -1.131332,1.43823 -1.433183,4.97586 -0.714397,8.3726 0.67548,3.19209 0.859216,3.38539 4.519631,4.75493 2.098539,0.78516 13.92808,4.16245 26.287868,7.50508 65.358309,17.67577 216.604569,59.17803 224.695939,61.657 l 4.2337,1.29708 4.13462,7.39833 c 2.27404,4.06908 17.35127,32.69507 33.50496,63.61331 30.59154,58.55241 37.03766,70.4554 38.97483,71.96849 1.71188,1.33712 3.9348,0.66257 19.21644,-5.83132 21.25967,-9.03425 19.9124,-8.68487 26.19237,-6.79239 7.99875,2.41045 37.94294,13.75264 63.25664,23.9602 19.76604,7.97053 23.17293,9.1371 26.94132,9.22518 2.37264,0.0554 5.31597,-0.2485 6.54074,-0.67546 z"
       id="path4779"
       inkscape:connector-curvature="0"
       transform="matrix(0.26458333,0,0,0.26458333,0,85.33333)" />
    <path
       style="fill:#ffffff;fill-opacity:1;stroke-width:0.09354433"
       d="m 125.44699,294.80896 c -0.0355,-0.0905 -1.48367,-0.69221 -5.49622,-2.28352 -10.30197,-4.08557 -16.53245,-6.40046 -18.38,-6.82893 -0.57736,-0.1339 -0.66837,-0.13308 -1.11032,0.01 -0.694875,0.22496 -3.121821,1.21748 -5.018267,2.05227 -3.24128,1.42677 -4.47498,1.84416 -4.85294,1.64188 -0.35715,-0.19114 -1.60547,-2.37678 -4.38458,-7.67672 -0.82283,-1.56921 -3.77963,-7.23098 -6.57068,-12.58171 -5.34638,-10.24963 -7.75266,-14.79706 -8.78015,-16.59298 -0.6119,-1.0695 -0.62945,-1.08943 -1.09649,-1.24447 -0.55352,-0.18376 -7.31613,-2.06464 -16.08271,-4.4731 -3.39566,-0.9329 -7.60516,-2.09049 -9.35444,-2.57242 -7.50608,-2.06797 -25.56508,-6.99344 -34.4710844,-9.40178 -7.6594628,-2.07124 -7.9242829,-2.15777 -8.1679429,-2.66873 -0.0866,-0.18166 -0.1575099,-0.40604 -0.1575099,-0.49862 0,-0.0926 -0.025,-0.19329 -0.0555,-0.22381 -0.0825,-0.0825 -0.0964,-1.47248 -0.0147,-1.47243 0.0386,1e-5 0.0702,-0.0609 0.0702,-0.13547 0,-0.28393 0.4058699,-0.56544 0.8419,-0.58395 0.23152,-0.01 1.66275,-0.0829 3.18051,-0.16227 3.3089025,-0.17316 7.4596672,-0.36193 13.5171572,-0.61475 9.15013,-0.3819 16.75449,-0.7413 27.68914,-1.30869 2.93261,-0.15216 6.01845,-0.30543 6.85745,-0.34058 0.83898,-0.0352 1.48564,-0.0889 1.43705,-0.1195 -0.0486,-0.0306 0.72011,-0.0624 1.70827,-0.0706 1.96106,-0.0164 2.48539,-0.11983 2.48539,-0.49016 0,-0.21718 -1.03575,-3.17827 -2.83616,-8.10836 -2.57641,-7.05491 -16.48083,-44.48955 -19.94107,-53.68697 -2.99735,-7.96705 -9.68123,-26.13186 -10.14539,-27.57218 -0.0622,-0.19293 -0.14135,-0.35087 -0.17595,-0.35098 -0.0346,-1e-4 -0.0735,-0.14833 -0.0864,-0.32938 -0.0194,-0.27207 0.043,-0.40134 0.35965,-0.74486 0.42898,-0.46538 1.68879,-1.14795 2.0239,-1.09656 0.1147,0.0176 0.35947,0.20806 0.54394,0.42329 1.05231,1.22769 6.79474,9.80711 24.17959,36.12523 16.43681,24.88298 25.64181,38.72152 29.15142,43.82552 1.88373,2.73952 1.9168,2.785 2.06993,2.84751 0.4403,0.17972 3.58926,0.54362 10.96465,1.26711 8.892197,0.87228 9.638907,0.90207 9.834237,0.39245 0.25351,-0.66145 1.54286,-6.69259 3.54329,-16.57429 2.28581,-11.29145 3.5467,-17.22319 3.73643,-17.5777 0.11002,-0.20556 6.89735,-3.63326 11.11694,-5.6142 2.7667,-1.29886 2.40358,-1.25038 3.03051,-0.40465 0.16209,0.21866 0.33215,0.39756 0.37792,0.39756 0.0458,0 0.0572,0.0421 0.0254,0.0935 -0.0318,0.0514 -0.0202,0.0935 0.0257,0.0935 0.0459,0 0.0847,0.0526 0.0861,0.11693 0.002,0.0643 0.27593,0.62207 0.60993,1.23946 1.16097,2.1461 3.87054,7.44708 8.7486,17.11568 6.57389,13.02984 8.38065,16.49324 9.52968,18.26746 0.42804,0.66095 0.53703,0.77174 0.75914,0.77168 0.40699,-9e-5 1.75629,-0.39817 4.14143,-1.22177 3.78274,-1.3062 17.29438,-5.90197 36.71615,-12.48842 10.28988,-3.48958 18.7323,-6.37842 18.76094,-6.41966 0.0287,-0.0412 0.28117,0.23006 0.56117,0.60288 0.27998,0.37282 0.53017,0.6989 0.55595,0.72462 0.0476,0.0475 0.0546,0.0935 0.0796,0.52002 0.008,0.13315 0.0555,0.21372 0.10758,0.18157 0.0514,-0.0318 0.0935,-0.0132 0.0935,0.0412 0,0.0545 -0.0375,0.0991 -0.0834,0.0991 -0.0459,0 -0.10801,0.0981 -0.13809,0.21788 -0.078,0.31099 -2.21622,2.36575 -4.45572,4.28193 -1.05471,0.90243 -6.9901,5.84919 -13.18975,10.9928 -27.56644,22.87078 -43.68185,36.36653 -44.02934,36.8721 -0.18835,0.27404 -0.66428,3.25525 -3.06457,19.19671 -1.72319,11.44451 -2.14089,14.71494 -2.10275,16.4638 0.01,0.43732 -0.0133,0.86742 -0.0508,0.95577 -0.0375,0.0883 -0.0536,0.3936 -0.0359,0.67833 0.0177,0.28472 0.006,0.51762 -0.026,0.51755 -0.032,-7e-5 -0.0868,0.17877 -0.12166,0.39743 -0.0886,0.55511 -0.26034,0.77467 -0.75316,0.96288 -0.69356,0.26487 -1.64659,0.15107 -3.15024,-0.37618 -0.68683,-0.24083 -1.32243,-0.44354 -1.41247,-0.45048 -0.09,-0.007 -0.1637,-0.0379 -0.1637,-0.0688 0,-0.0911 -0.66039,-0.37905 -0.74679,-0.32565 -0.0435,0.0269 -0.0933,0.008 -0.11051,-0.0414 -0.0402,-0.11586 -3.21924,-1.64783 -4.37353,-2.10763 -0.48456,-0.19301 -1.04232,-0.37257 -1.23947,-0.39901 l -0.35844,-0.0481 -10e-4,0.87759 c -0.001,0.9663 0.28511,4.29205 0.369,4.29185 0.0945,0 -0.008,2.19506 -0.1082,2.31629 -0.1651,0.1998 -1.07677,0.41261 -2.0467,0.47777 -0.50881,0.0342 -0.93585,0.0347 -0.949,0.001 z m -0.81004,-4.58924 c 0.18668,-0.34882 -0.0509,-3.0758 -0.90316,-10.36668 -0.23154,-1.9808 -0.73395,-6.37972 -1.11646,-9.77538 -0.38251,-3.39566 -1.05427,-9.22581 -1.49281,-12.95589 -0.43853,-3.73008 -1.30177,-11.15984 -1.91829,-16.51058 -0.61652,-5.35073 -1.37412,-11.83335 -1.68354,-14.40582 -0.30941,-2.57247 -0.90057,-7.62387 -1.31366,-11.22532 -0.83001,-7.23615 -1.04105,-8.95922 -1.31763,-10.7576 -0.49132,-3.19474 -0.93465,-4.44336 -1.57761,-4.44336 -0.34296,0 -0.44432,0.13629 -0.65857,0.8855 -0.27962,0.97774 -1.26721,5.87856 -9.3224,46.26085 l -2.2858,11.45918 0.28589,7.24968 c 0.30684,7.78096 0.51548,12.36886 0.6564,14.43367 0.12664,1.85573 0.107,1.83595 2.94759,2.96751 3.83804,1.52888 16.34438,6.39876 18.1476,7.06653 1.01456,0.37571 1.39878,0.40484 1.55245,0.11771 z m 11.36692,-4.43414 c 0.19824,-0.78987 0.26576,-0.44283 -10.01699,-51.48863 -4.7416,-23.53833 -5.6502,-27.93241 -6.00054,-29.01937 -0.25272,-0.78408 -1.07694,-1.20931 -1.36523,-0.70434 -0.14601,0.25573 -0.13721,1.77984 0.018,3.12303 0.0586,0.50752 0.3971,3.36427 0.75212,6.34833 0.35503,2.98407 0.92173,7.88813 1.25935,10.89792 0.33761,3.00979 0.80174,6.96671 1.03139,8.79317 0.51706,4.11228 0.94652,7.78843 3.36593,28.81165 1.80233,15.66128 2.16855,18.60502 2.39558,19.25629 0.0655,0.18793 0.29802,0.38424 0.81303,0.68649 2.26602,1.32986 6.91542,3.52723 7.47806,3.53425 0.14741,0.002 0.22649,-0.0683 0.26928,-0.23879 z m -42.652897,-0.79325 c 0.3527,-0.10601 1.68312,-0.70321 2.95649,-1.32713 l 2.315204,-1.13439 -0.001,-0.38006 c -0.002,-0.91795 -0.202478,-6.73372 -0.373388,-10.81024 -0.39164,-9.34145 -0.58701,-11.80069 -0.98613,-12.41263 -0.175569,-0.26918 -1.659636,-0.75103 -5.421756,-1.76032 -1.59493,-0.42788 -4.28901,-1.17683 -5.98684,-1.66432 -4.85884,-1.39509 -9.03829,-2.40087 -9.98585,-2.40306 -0.83579,-0.002 -0.88115,-0.0988 7.25082,15.48077 6.01345,11.52084 8.21251,15.62517 8.65099,16.14626 0.42165,0.5011 0.6619,0.54139 1.58111,0.26512 z m 45.177407,-9.0462 c 0.0564,-0.0378 0.21596,-0.84748 0.35449,-1.79929 0.13853,-0.95181 0.88035,-5.83483 1.64849,-10.85114 0.76815,-5.01632 1.46105,-9.61734 1.5398,-10.22451 0.1963,-1.51374 0.18444,-2.44433 -0.0374,-2.93287 -0.23864,-0.52558 -1.78767,-2.23341 -5.71405,-6.29985 -1.81324,-1.8779 -3.67735,-3.83532 -4.14249,-4.34981 -0.46513,-0.51449 -0.98779,-1.01963 -1.16145,-1.12253 -0.31223,-0.185 -0.31727,-0.18507 -0.4519,-0.006 -0.27347,0.36474 -0.16724,1.39371 0.46645,4.51803 4.46088,21.99391 5.39956,26.596 5.86258,28.74249 0.61767,2.86351 0.91733,3.98941 1.13904,4.27965 0.0989,0.1295 0.33817,0.15134 0.49643,0.0453 z M 93.664843,253.57259 c 0,-0.23935 -0.41454,-0.74743 -7.67484,-9.40671 -9.75527,-11.635 -10.83729,-12.85175 -11.88189,-13.36159 -0.89104,-0.43489 -1.87488,-0.47864 -10.61133,-0.47187 -10.94251,0.009 -18.29164,0.21235 -29.98095,0.83166 -1.46631,0.0777 -5.12858,0.26721 -8.13836,0.42116 -7.23578,0.37013 -8.6061,0.48055 -9.31672,0.75072 -0.28861,0.10973 -0.29698,0.43687 -0.0143,0.55991 0.6085,0.26488 9.87411,2.84431 28.50765,7.93617 6.37296,1.74149 11.75563,3.21871 18.28791,5.01891 1.80073,0.49626 6.91527,1.88933 11.36564,3.09572 4.45037,1.20639 9.83931,2.67655 11.97543,3.26702 4.47745,1.23766 5.74827,1.52628 6.75682,1.53454 0.65731,0.005 0.72497,-0.011 0.72497,-0.17564 z m 4.810706,-0.58068 c 0.321398,-0.14645 0.446768,-0.52712 0.934976,-2.83919 1.785345,-8.45494 4.721695,-24.33336 4.887105,-26.42722 l 0.0555,-0.70252 -8.080297,-0.84089 c -7.00114,-0.72858 -8.30546,-0.84089 -9.76588,-0.84096 l -1.68552,-7e-5 -0.61886,0.30455 c -0.7448,0.36653 -1.25735,0.8917 -3.17485,3.25298 -1.83914,2.26479 -2.87519,3.64241 -2.94326,3.91357 -0.15881,0.6328 0.93684,2.00211 12.36013,15.44726 3.191,3.75581 6.10774,7.20759 6.481617,7.67064 0.604599,0.74876 1.051429,1.16734 1.247739,1.16881 0.0362,0 0.17189,-0.0479 0.3016,-0.10696 z m 48.154641,-6.79807 c 1.32738,-1.0271 6.71208,-5.49217 23.88129,-19.80269 6.79132,-5.66055 13.23184,-11.00399 14.31228,-11.8743 4.39022,-3.53639 10.28917,-8.51216 10.97431,-9.25683 0.22209,-0.24139 0.38632,-0.4894 0.36496,-0.55114 -0.073,-0.21091 -1.18036,-0.11074 -2.31224,0.20915 -1.95882,0.5536 -15.0974,4.96886 -36.90324,12.40142 -6.54202,2.22987 -8.6842,3.04909 -8.80651,3.36784 -0.051,0.13294 0.73422,2.06689 0.89213,2.19725 0.0525,0.0433 0.0587,0.19201 0.0237,0.57149 -0.0186,0.20214 -0.7149,0.98333 -1.17093,1.31367 -0.75151,0.54439 -1.3356,0.34662 -3.28998,-1.11391 -0.67088,-0.50136 -1.41217,-1.01359 -1.64729,-1.1383 l -0.42749,-0.22673 -1.09626,0.25903 c -1.28919,0.30462 -5.41832,1.44709 -8.65862,2.39571 -2.41084,0.70579 -3.7342,1.18276 -4.3396,1.56409 l -0.36396,0.22925 0.0536,0.8558 c 0.14989,2.39157 0.61153,3.29859 3.02349,5.94043 2.81426,3.0825 10.43527,10.9582 12.36734,12.78065 l 1.24616,1.17544 0.36583,-0.20561 c 0.2012,-0.11308 0.88114,-0.60435 1.51097,-1.09171 z M 74.044263,227.15155 c 0.29603,-0.0697 0.70635,-0.23791 0.91183,-0.37389 0.60908,-0.40307 4.27249,-4.62962 5.43835,-6.27435 0.52443,-0.73981 0.52853,-0.82291 0.0877,-1.78149 -0.6504,-1.41418 -0.61674,-1.36255 -21.61281,-33.16147 -21.53987,-32.6225 -22.35502,-33.84504 -22.84503,-34.26201 -0.15564,-0.13243 -0.22129,-0.14249 -0.33173,-0.0508 -0.21428,0.17783 -0.082,0.8488 0.53118,2.69486 0.53401,1.60767 9.56401,25.96345 11.46237,30.9164 0.53243,1.38914 1.60681,4.27264 2.38751,6.40779 0.7807,2.13515 2.03036,5.50274 2.77702,7.48355 2.44715,6.49202 7.19754,19.38303 7.93903,21.54398 0.22611,0.65894 0.60096,1.6341 0.83301,2.16702 0.23205,0.53292 0.58993,1.46641 0.79527,2.07442 0.20534,0.60801 0.44978,1.2114 0.5432,1.34088 0.0934,0.12948 0.39948,0.34944 0.68016,0.4888 0.71935,0.35718 1.88401,0.50678 6.63748,0.85261 1.19639,0.087 3.26901,0.0506 3.76549,-0.0663 z m 55.469437,-4.82266 c 1.8729,-0.48321 6.17083,-1.75758 7.64894,-2.26797 0.768,-0.26518 1.17842,-0.45417 1.19639,-0.55091 0.0781,-0.42032 -2.62641,-2.63125 -10.01791,-8.18969 -2.71165,-2.03917 -3.53701,-2.55887 -3.76429,-2.37025 -0.0748,0.062 -0.13593,0.22113 -0.13593,0.35351 0,0.28669 1.6057,8.32439 2.20852,11.05527 0.23282,1.05471 0.48459,2.01237 0.55949,2.12813 0.19689,0.30433 0.6268,0.27484 2.30479,-0.15809 z m 4.65581,-11.40159 c 0,-0.51871 -1.86342,-2.86319 -6.22125,-7.82738 -1.44528,-1.64638 -3.42394,-3.94056 -4.39702,-5.09817 -0.97308,-1.15761 -2.57064,-3.02873 -3.55014,-4.15805 -3.48072,-4.01312 -4.16062,-4.68852 -4.64992,-4.61922 -0.47816,0.0677 -0.97764,1.72509 -1.29201,4.28714 -0.10417,0.84892 -0.21125,1.71186 -0.23797,1.91766 l -0.0486,0.37418 2.91878,2.29184 c 6.79426,5.33488 17.05466,13.00266 17.39913,13.00266 0.0434,0 0.079,-0.0768 0.079,-0.17066 z m 3.34995,-2.65994 c 0.12555,-0.6519 -9.58294,-20.03071 -12.34829,-24.64805 -0.33409,-0.55783 -0.51437,-0.77174 -0.65044,-0.77174 -0.64791,0 -5.47619,2.46285 -6.23558,3.18069 -0.20821,0.19683 -0.21014,0.21248 -0.0559,0.45264 0.6431,1.0017 2.7312,3.49367 10.55502,12.59661 7.70926,8.96965 8.59765,9.90428 8.73524,9.18985 z"
       id="path4807-8"
       inkscape:connector-curvature="0" />
  </g>
</svg>
