<?xml version="1.0" encoding="UTF-8" standalone="no"?>
<!-- Created with Inkscape (http://www.inkscape.org/) -->

<svg
   xmlns:dc="http://purl.org/dc/elements/1.1/"
   xmlns:cc="http://creativecommons.org/ns#"
   xmlns:rdf="http://www.w3.org/1999/02/22-rdf-syntax-ns#"
   xmlns:svg="http://www.w3.org/2000/svg"
   xmlns="http://www.w3.org/2000/svg"
   xmlns:sodipodi="http://sodipodi.sourceforge.net/DTD/sodipodi-0.dtd"
   xmlns:inkscape="http://www.inkscape.org/namespaces/inkscape"
   version="1.1"
   id="svg2"
   width="650"
   height="310"
   viewBox="0 0 650 310"
   sodipodi:docname="logo-short.svg"
   inkscape:version="0.92.5 (2060ec1f9f, 2020-04-08)">
  <metadata
     id="metadata8">
    <rdf:RDF>
      <cc:Work
         rdf:about="">
        <dc:format>image/svg+xml</dc:format>
        <dc:type
           rdf:resource="http://purl.org/dc/dcmitype/StillImage" />
        <dc:title></dc:title>
      </cc:Work>
    </rdf:RDF>
  </metadata>
  <defs
     id="defs6">
    <clipPath
       clipPathUnits="userSpaceOnUse"
       id="clipPath837">
      <rect
         style="fill:#ffffff;fill-opacity:1"
         id="rect839"
         width="780.64587"
         height="311.83408"
         x="66.46804"
         y="327.76328" />
    </clipPath>
    <clipPath
       clipPathUnits="userSpaceOnUse"
       id="clipPath927">
      <rect
         style="fill:#ffff21;fill-opacity:0.61835746;stroke-width:0.99640161"
         id="rect929"
         width="855.06885"
         height="852.77075"
         x="-2.8284271"
         y="0.057652827" />
    </clipPath>
    <clipPath
       clipPathUnits="userSpaceOnUse"
       id="clipPath1044">
      <rect
         style="fill:#ffff21;fill-opacity:0.61835746"
         id="rect1046"
         width="766.50372"
         height="390.32294"
         x="2.8284271"
         y="227.84654" />
    </clipPath>
    <clipPath
       clipPathUnits="userSpaceOnUse"
       id="clipPath1056">
      <rect
         style="fill:#ffff21;fill-opacity:0.61835746"
         id="rect1058"
         width="711"
         height="346"
         x="28.000002"
         y="29.000002" />
    </clipPath>
    <clipPath
       clipPathUnits="userSpaceOnUse"
       id="clipPath892">
      <rect
         style="fill:#ffff47;fill-opacity:0.64251206"
         id="rect894"
         width="698"
         height="374"
         x="-172"
         y="-39" />
    </clipPath>
    <clipPath
       clipPathUnits="userSpaceOnUse"
       id="clipPath904">
      <rect
         style="fill:#ffff47;fill-opacity:0.64251206"
         id="rect906"
         width="698"
         height="329"
         x="-163"
         y="-11" />
    </clipPath>
  </defs>
  <sodipodi:namedview
     pagecolor="#ffffff"
     bordercolor="#666666"
     borderopacity="1"
     objecttolerance="10"
     gridtolerance="10"
     guidetolerance="10"
     inkscape:pageopacity="0"
     inkscape:pageshadow="2"
     inkscape:window-width="3840"
     inkscape:window-height="2096"
     id="namedview4"
     showgrid="false"
     inkscape:zoom="2"
     inkscape:cx="62.825073"
     inkscape:cy="102.23133"
     inkscape:window-x="0"
     inkscape:window-y="27"
     inkscape:window-maximized="1"
     inkscape:current-layer="svg2" />
  <g
     id="g896"
     transform="translate(144,1)">
    <path
       style="fill:#20263c"
       d="m 252.26882,305.64468 c -0.33385,-0.86998 -0.60699,-69.17998 -0.60699,-151.8 0,-115.50305 0.27732,-150.49553 1.2,-151.41821 1.62976,-1.62976 3.34956,-1.50759 5.22857,0.37143 1.41459,1.41459 1.57143,16.5272 1.57143,151.41821 0,82.41573 -0.27314,150.55859 -0.60699,151.42857 -0.35251,0.91863 -1.77501,1.58179 -3.39301,1.58179 -1.618,0 -3.0405,-0.66316 -3.39301,-1.58179 z M 80.66183,261.82314 c 0,-1.33048 1.10254,-9.54652 2.45009,-18.25786 1.34755,-8.71135 3.21513,-22.81381 4.15017,-31.33881 0.93504,-8.525 2.195,-16.02196 2.79991,-16.65991 0.70051,-0.73877 9.08742,-1.56482 23.09983,-2.27514 24.90392,-1.26245 46.6564,-3.13682 69.97664,-6.02974 8.78715,-1.09006 16.33008,-1.62849 16.76206,-1.19651 0.43198,0.43198 0.66749,18.08249 0.52336,39.22336 l -0.26206,38.43794 -59.75,0.25787 -59.75,0.25787 z m 217.23925,-30.84667 c -1.4198,-1.76479 -3.32072,-11.37412 -2.61424,-13.21518 0.41077,-1.07044 1.97389,-1.53482 5.16625,-1.53482 5.92175,0 12.23178,-3.09653 14.73058,-7.22876 1.90896,-3.15681 1.98789,-5.54264 2.25643,-68.20284 0.19353,-45.16025 0.61143,-65.33304 1.37244,-66.25 1.68902,-2.03514 15.44588,-1.81207 16.2423,0.26339 0.33385,0.86998 0.59129,29.10748 0.5721,62.75 -0.0378,66.35098 -0.45679,72.71237 -5.33711,81.04002 -2.82982,4.82872 -7.52186,8.77006 -13.87165,11.65228 -4.99539,2.26744 -16.90142,2.73419 -18.5171,0.72591 z M -70.33817,197.18485 c -16.91357,-2.06638 -38.42936,-7.85899 -56.5,-15.21128 -15.79536,-6.42656 -17.65684,-8.19621 -9.75,-9.26906 48.14697,-6.53289 84.50045,-29.28832 99.44482,-62.24744 5.30873,-11.70814 6.99679,-20.22197 6.93571,-34.9806 -0.0431,-10.40945 0.23132,-13.25 1.27993,-13.25 2.37799,0 26.21428,7.92868 37.80687,12.57572 6.20547,2.48755 15.69462,7.01493 21.087,10.06086 17.31864,9.78256 26.79497,17.8824 43.43935,37.12952 3.58333,4.14367 6.63277,6.59416 9.63067,7.73906 4.27971,1.63444 4.93395,1.58573 26.75631,-1.99227 31.29062,-5.1304 55.93958,-9.87649 72.67592,-13.99354 7.86862,-1.93564 15.18112,-3.51935 16.25,-3.51935 1.87172,0 1.94342,0.90465 1.94342,24.52144 0,24.48597 -0.003,24.52279 -2.25,25.45631 -7.06155,2.93407 -58.5701,5.00395 -76.25,3.06413 -6.05,-0.6638 -14.375,-1.57309 -18.5,-2.02065 -9.15756,-0.99359 -22.80202,0.21103 -33.45426,2.95354 -4.41209,1.13593 -15.76768,5.7819 -25.5,10.43294 -9.65016,4.61179 -21.21027,9.76879 -25.68913,11.46 -8.77269,3.31257 -27.84261,8.36279 -38.35661,10.15785 -8.66485,1.47936 -41.5963,2.08169 -51,0.93282 z m 526.5,-4.77002 c -8.16656,-2.42147 -16.52967,-7.1362 -17.58582,-9.91407 -1.04833,-2.75732 -0.93075,-15.62944 0.15887,-17.39249 0.56024,-0.90648 1.8904,-0.24411 4.81402,2.39721 17.17324,15.51499 39.88191,15.43382 44.08023,-0.15757 2.64224,-9.81253 -3.22256,-17.62913 -21.62658,-28.82388 -14.48232,-8.80926 -20.97798,-14.40696 -24.86792,-21.43021 -2.64644,-4.7781 -2.97173,-6.30051 -2.96303,-13.86735 0.008,-6.55422 0.49951,-9.56426 2.14916,-13.14917 8.12896,-17.66519 32.71233,-23.98065 53.22678,-13.67393 l 6.61429,3.3231 0.28893,8.75 c 0.20611,6.24162 -0.0509,8.75 -0.89649,8.75 -0.65199,0 -3.49591,-1.53361 -6.31983,-3.40802 -7.61639,-5.05547 -14.32338,-6.9501 -22.52585,-6.36321 -8.21914,0.58807 -13.07846,3.21092 -15.53335,8.38421 -3.95584,8.33631 0.7444,15.31481 17.15814,25.47493 21.094,13.0572 27.82865,19.57131 31.30574,30.28057 1.89038,5.82229 0.91041,20.12443 -1.72199,25.13152 -3.10129,5.89896 -9.02789,11.48035 -15.2553,14.36672 -7.28894,3.37837 -21.48838,3.99367 -30.5,1.32164 z m -94.04093,-1.43836 c -0.26299,-0.6875 -0.36137,-27.35 -0.21862,-59.25 l 0.25955,-58 h 31.5 31.5 v 6.95492 c 0,6.56646 -0.13963,6.99375 -2.5,7.65032 -1.375,0.38247 -11.56436,0.74026 -22.64301,0.79508 -17.3853,0.086 -20.22611,0.31624 -20.75,1.68147 -0.78486,2.0453 -0.76569,25.22413 0.0233,28.16821 0.60158,2.2448 0.65298,2.25004 22.23634,2.26531 11.89835,0.008 22.21808,0.38621 22.93272,0.83952 0.91235,0.57872 1.21019,2.88243 1,7.73469 l -0.29935,6.91048 -22.28877,0.26924 c -16.56527,0.20009 -22.39115,0.58528 -22.6875,1.5 -0.21931,0.67692 -0.61761,12.93076 -0.88512,27.23076 -0.26751,14.3 -0.52064,26.1125 -0.5625,26.25 -0.0419,0.1375 -3.69023,0.25 -8.10749,0.25 -5.50343,0 -8.1819,-0.39345 -8.50955,-1.25 z m -267.95508,-90 c -1.04,-3.00068 -1.95498,-47.12264 -1.00399,-48.41442 0.82497,-1.12061 10.27642,-1.31261 54,-1.09697 l 53,0.26139 0.27801,13.10431 c 0.20627,9.72283 -0.0518,13.3618 -1,14.10216 -0.70291,0.54882 -5.19489,1.75834 -9.98219,2.68782 -4.7873,0.92949 -16.7123,3.94156 -26.5,6.69348 -42.4989,11.94908 -67.4474,16.54125 -68.79183,12.66223 z"
       id="path898"
       inkscape:connector-curvature="0" />
  </g>
</svg>
