<?xml version="1.0" encoding="UTF-8" standalone="no"?>
<!-- Created with Inkscape (http://www.inkscape.org/) -->

<svg
   xmlns:dc="http://purl.org/dc/elements/1.1/"
   xmlns:cc="http://creativecommons.org/ns#"
   xmlns:rdf="http://www.w3.org/1999/02/22-rdf-syntax-ns#"
   xmlns:svg="http://www.w3.org/2000/svg"
   xmlns="http://www.w3.org/2000/svg"
   xmlns:sodipodi="http://sodipodi.sourceforge.net/DTD/sodipodi-0.dtd"
   xmlns:inkscape="http://www.inkscape.org/namespaces/inkscape"
   version="1.1"
   id="svg2"
   width="720"
   height="720"
   viewBox="0 0 720 720"
   sodipodi:docname="logo-extended.svg"
   inkscape:version="0.92.5 (2060ec1f9f, 2020-04-08)">
  <metadata
     id="metadata8">
    <rdf:RDF>
      <cc:Work
         rdf:about="">
        <dc:format>image/svg+xml</dc:format>
        <dc:type
           rdf:resource="http://purl.org/dc/dcmitype/StillImage" />
        <dc:title></dc:title>
      </cc:Work>
    </rdf:RDF>
  </metadata>
  <defs
     id="defs6">
    <clipPath
       clipPathUnits="userSpaceOnUse"
       id="clipPath837">
      <rect
         style="fill:#ffffff;fill-opacity:1"
         id="rect839"
         width="780.64587"
         height="311.83408"
         x="66.46804"
         y="327.76328" />
    </clipPath>
  </defs>
  <sodipodi:namedview
     pagecolor="#ffffff"
     bordercolor="#666666"
     borderopacity="1"
     objecttolerance="10"
     gridtolerance="10"
     guidetolerance="10"
     inkscape:pageopacity="0"
     inkscape:pageshadow="2"
     inkscape:window-width="1908"
     inkscape:window-height="1017"
     id="namedview4"
     showgrid="false"
     inkscape:zoom="0.70710678"
     inkscape:cx="-7.3815795"
     inkscape:cy="242.93231"
     inkscape:window-x="8"
     inkscape:window-y="1097"
     inkscape:window-maximized="0"
     inkscape:current-layer="svg2" />
  <g
     id="g829"
     clip-path="url(#clipPath837)"
     transform="translate(-94.045199,-126.07258)">
    <path
       style="fill:#23283e"
       d="m 345.74203,605.75 c -0.25957,-0.6875 0.1535,-4.85 0.91794,-9.25 1.92449,-11.0771 4.88864,-32.3306 6.83385,-49 2.25307,-19.30753 1.76105,-18.49667 11.23474,-18.5152 18.29624,-0.0358 66.30249,-3.98732 97.77144,-8.04788 14.06132,-1.81438 15.07822,-1.82972 16.25,-0.24508 1.6184,2.18862 1.82,81.37458 0.21482,84.3739 -1.00737,1.88229 -2.80477,1.93426 -66.89301,1.93426 -51.7679,0 -65.9588,-0.26743 -66.32978,-1.25 z M 522,597.24845 c -2.94039,-1.4689 -3.54962,-2.34803 -3.81037,-5.49845 -0.36582,-4.42009 0.54563,-4.66271 6.57423,-1.75 2.27674,1.1 5.41114,2 6.96533,2 6.0677,0 9.51626,-5.74865 5.52081,-9.20304 -0.9625,-0.83216 -4.5132,-2.96332 -7.89045,-4.73592 C 520.0407,573.1699 517.5,570.05045 517.5,563.5 c 0,-4.58343 0.43183,-5.8194 2.95237,-8.45029 3.55965,-3.71547 9.39226,-5.46076 15.74387,-4.71102 7.12147,0.84062 10.80376,3.09966 10.80376,6.62797 0,3.83225 -1.0513,4.32768 -5.36165,2.5267 -4.29589,-1.79494 -11.77353,-1.95818 -13.43835,-0.29336 -1.71483,1.71483 -1.48132,5.32091 0.44858,6.92756 0.90671,0.75484 5.01752,3.17244 9.13513,5.37244 8.06125,4.30705 11.21629,8.24513 11.21629,14 0,4.38565 -3.13422,9.56642 -7.06166,11.67273 -4.53979,2.43472 -15.1356,2.47495 -19.93834,0.0757 z m 41.50223,0.17615 c -7.25628,-3.78353 -9.8877,-8.41881 -9.31037,-16.40033 0.50309,-6.95513 3.19554,-11.06521 9.13084,-13.93844 7.86954,-3.80958 19.78547,-2.26118 20.49342,2.663 0.30929,2.15131 0.14299,2.18541 -7.70524,1.5802 l -8.02135,-0.61856 -3.54476,3.54476 c -3.80688,3.80688 -4.64341,8.23942 -2.45956,13.03245 2.31322,5.07695 10.44224,7.16742 17.84133,4.58808 2.19951,-0.76675 3.55046,-0.79876 4.24856,-0.10066 1.7175,1.7175 -0.0788,4.99568 -3.36518,6.14132 -4.53833,1.58207 -13.83703,1.31783 -17.30769,-0.49182 z M 591.2,597.8 c -1.51983,-1.51983 -1.6616,-28.06898 -0.16482,-30.86574 C 591.60453,565.87042 592.9387,565 594,565 c 2.67178,0 4,2.96667 4,8.93426 V 579 h 8 8 v -5.30887 c 0,-6.3508 1.69161,-9.24117 4.8262,-8.24629 2.11214,0.67037 2.1738,1.14273 2.1738,16.65393 0,13.85724 -0.21589,16.04685 -1.63592,16.59176 -3.13334,1.20238 -4.84071,-1.1188 -5.36408,-7.29252 L 613.5,585.5 605.75,585.20794 598,584.91587 v 5.10781 c 0,2.80929 -0.46583,5.97822 -1.03518,7.04206 -1.16668,2.17996 -3.96296,2.53612 -5.76482,0.73426 z m 44.76002,-1.10274 c -10.16615,-5.37599 -11.84594,-18.92428 -3.33318,-26.88364 3.80167,-3.55454 7.39625,-4.81362 13.74248,-4.81362 13.37866,0 21.64298,13.21493 15.63237,24.9967 -4.32419,8.4761 -16.67474,11.65391 -26.04167,6.70056 z m 15.89495,-5.12226 c 6.84563,-3.54001 6.84563,-15.60999 0,-19.15 -4.70243,-2.43172 -10.3687,-1.83129 -14.08919,1.49297 C 634.87638,576.49965 634.5,577.4311 634.5,582 c 0,4.5689 0.37638,5.50035 3.26578,8.08203 3.72049,3.32426 9.38676,3.92469 14.08919,1.49297 z m 26.36768,5.76408 C 671.07407,593.8156 667.01121,585.3858 668.96485,578.13055 671.14751,570.02476 678.07174,565 687.05903,565 c 8.98665,0 15.76712,4.92694 17.95321,13.04547 2.0038,7.44155 -2.52237,16.59842 -9.68343,19.5905 -4.39619,1.83685 -13.08303,1.68608 -17.10616,-0.29689 z m 16.85427,-7.26216 C 697.55147,587.60237 698,586.36302 698,582 c 0,-4.36302 -0.44853,-5.60237 -2.92308,-8.07692 C 692.63478,571.48093 691.34073,571 687.21178,571 c -6.1541,0 -9.74962,2.56994 -11.21637,8.01705 -2.12157,7.87891 2.81303,13.98295 11.30402,13.98295 4.03207,0 5.34959,-0.49517 7.77749,-2.92308 z m 17.3539,7.81114 c -0.82745,-1.33883 -1.30196,-21.67162 -0.64437,-27.61098 0.34731,-3.13694 0.99391,-4.38998 2.51435,-4.87255 3.53927,-1.12332 4.41496,1.69768 4.59839,14.81352 0.11641,8.32376 0.55725,12.45275 1.38577,12.97922 0.66827,0.42466 4.00098,0.779 7.40602,0.78742 6.44588,0.0159 8.32728,1.08345 6.27267,3.55911 -1.50804,1.81708 -20.43556,2.11968 -21.53283,0.34426 z m -527.24043,-64.9217 c -26.07604,-2.51538 -54.09364,-10.0696 -77.8019,-20.97725 -9.460568,-4.3526 -10.773364,-5.7032 -6.16628,-6.34387 14.50235,-2.01673 29.93844,-5.29242 38.62949,-8.19755 35.77745,-11.95924 61.93376,-33.44344 75.14236,-61.72023 6.38845,-13.67633 7.48668,-19.09317 7.49692,-36.97763 l 0.009,-15.75016 2.76379,1.6e-4 c 3.76154,2.3e-4 33.56841,10.06832 46.25048,15.62238 22.5436,9.87288 40.8135,22.42153 54.64966,37.53605 15.88991,17.358 19.43389,20.64096 23.64364,21.90223 3.5802,1.07266 7.55192,0.62248 35.3628,-4.00821 35.92676,-5.98203 59.56869,-10.66292 78.73749,-15.58932 10.07079,-2.5882 13.7419,-3.16859 14.75,-2.33195 1.05941,0.87923 1.34214,6.55019 1.34214,26.92001 0,22.12678 -0.22405,26.03017 -1.57143,27.37755 -0.86428,0.86429 -1.9311,1.57143 -2.37071,1.57143 -0.4396,0 -7.49496,0.74069 -15.67857,1.64597 -22.03116,2.43713 -61.96805,2.42127 -78.87929,-0.0313 -26.61205,-3.85947 -51.88186,0.42419 -73,12.37475 -15.23478,8.62121 -44.02998,19.25492 -62,22.89582 -20.69747,4.19351 -44.03819,5.74722 -61.30961,4.08115 z M 520.57143,513.42857 C 519.24389,512.10104 519,508.63859 519,491.1197 c 0,-15.09093 0.34282,-21.20627 1.25903,-22.45927 1.10244,-1.50767 2.93705,-1.68692 14.75,-1.44113 L 548.5,467.5 v 3 3 l -7.5,0.25303 c -12.12199,0.40896 -12.15335,0.42632 -11.80115,6.52886 L 529.5,485.5 539,486 c 8.98582,0.47294 9.51769,0.62476 9.82676,2.80504 C 549.43254,493.0783 547.48991,494 537.87756,494 H 529 v 9.3 c 0,5.9 -0.43871,9.73871 -1.2,10.5 -1.68275,1.68275 -5.36352,1.49362 -7.22857,-0.37143 z m 35.67857,0.90915 c -0.92602,-0.37366 -1.25,-4.60199 -1.25,-16.31406 0,-18.0506 -0.56182,-17.02592 9.33179,-17.01992 12.51563,0.008 17.2228,7.74039 10.46264,17.18772 -0.97033,1.35604 -0.90111,2.05012 0.34904,3.5 3.0286,3.51248 6.12745,10.16014 5.49929,11.7971 -1.01898,2.65543 -4.88898,1.38168 -7.12702,-2.34575 -3.68157,-6.13161 -8.08264,-10.52298 -9.86193,-9.84021 -1.2809,0.49153 -1.65381,1.9705 -1.65381,6.55903 0,4.47978 -0.38571,6.0724 -1.58179,6.53138 -1.77089,0.67955 -2.36666,0.67165 -4.16821,-0.0553 z m 13.16761,-20.65382 c 3.7988,-2.77775 -1.36999,-8.85012 -5.60428,-6.584 -1.77624,0.95062 -2.54978,5.83031 -1.14666,7.23343 1.10855,1.10855 4.83731,0.74985 6.75094,-0.64943 z M 588.25,514.33772 c -0.92602,-0.37366 -1.25,-4.60199 -1.25,-16.31406 0,-13.49387 0.2317,-15.89859 1.58179,-16.41667 0.86998,-0.33385 5.31488,-0.60699 9.87755,-0.60699 6.04316,0 8.62393,0.39541 9.50431,1.4562 1.98972,2.39746 0.22972,3.5438 -5.44088,3.5438 -7.38116,0 -8.52277,0.60277 -8.52277,4.5 0,3.90304 1.13844,4.5 8.58179,4.5 5.11276,0 5.41821,0.14094 5.41821,2.5 0,2.37504 -0.28742,2.50077 -5.75,2.51531 -7.2524,0.0193 -8.48417,0.79576 -8.07418,5.08955 0.30453,3.18935 0.56663,3.41069 4.32418,3.65166 8.09281,0.519 10.5,1.24845 10.5,3.1818 0,1.01624 -0.7118,2.12085 -1.58179,2.45469 -1.87129,0.71808 -17.36233,0.6734 -19.16821,-0.0553 z m 28,0.0175 c -0.92528,-0.38628 -1.25,-4.62877 -1.25,-16.33152 0,-13.49387 0.2317,-15.89859 1.58179,-16.41667 2.79169,-1.07128 17.96201,-0.66319 19.14007,0.51487 2.37546,2.37546 0.19443,3.87814 -5.62885,3.87814 -6.33034,0 -8.09301,1.10926 -8.09301,5.09301 0,3.25627 1.44091,3.90699 8.65134,3.90699 5.11903,0 5.46629,0.15118 5.16821,2.25 -0.27846,1.96071 -1.05351,2.31539 -6.0281,2.75855 -6.62342,0.59005 -8.07227,1.65861 -7.61963,5.61963 0.30788,2.69414 0.63753,2.88799 5.32818,3.13313 8.11816,0.42428 9.6721,1.01217 9.31492,3.52404 -0.29763,2.09303 -0.83661,2.225 -9.81492,2.40317 -5.225,0.10368 -10.0625,-0.0463 -10.75,-0.33334 z m 27.97372,-0.19575 c -0.96735,-0.6139 -1.20941,-4.66456 -1,-16.73469 L 643.5,481.5 l 7.73775,-0.29184 c 10.36996,-0.39113 14.74592,0.92448 19.09799,5.7417 6.22619,6.89165 6.14925,15.80045 -0.19123,22.14092 -2.02928,2.02929 -5.47946,4.18651 -7.66706,4.79384 -4.6171,1.28181 -16.38771,1.45901 -18.25373,0.27481 z m 19.66555,-7.71971 c 3.60164,-3.03058 4.79126,-7.84765 3.15927,-12.79263 -1.52571,-4.62296 -5.18432,-6.86589 -11.45246,-7.02099 L 650.5,486.5 650.21725,497.75 649.9345,509 h 5.45602 c 4.39507,0 6.04771,-0.49787 8.49875,-2.56028 z m 18.20579,7.17482 c -0.78147,-0.94161 -1.06097,-6.11315 -0.87245,-16.14256 0.24403,-12.98225 0.49491,-14.89029 2.08596,-15.86454 1.4473,-0.88622 2.0965,-0.71969 3.25,0.83369 1.88841,2.54306 2.09598,29.50432 0.24143,31.35887 -1.58511,1.58511 -3.29132,1.51785 -4.70494,-0.18546 z m 24.08964,0.10801 c -0.63288,-0.76257 -4.03626,-7.87461 -7.56308,-15.80452 -4.58163,-10.30165 -6.12179,-14.77491 -5.39456,-15.66803 2.57411,-3.16127 5.27747,-0.62108 9.31207,8.75 4.60164,10.68816 4.80622,10.69761 9.54155,0.44076 4.09141,-8.86212 5.2243,-10.39585 7.7007,-10.42545 2.94066,-0.0351 2.17776,3.85757 -3.29354,16.80539 -6.32236,14.96185 -8.40965,18.18337 -10.30314,15.90185 z m 23.0653,0.62668 c -0.92554,-0.38198 -1.25,-4.61964 -1.25,-16.32557 0,-16.53897 0.39295,-17.96131 4.52421,-16.37599 1.29456,0.49676 1.4829,3.01392 1.25,16.70589 -0.28384,16.68718 -0.55194,17.63508 -4.52421,15.99567 z M 742.2,513.8 c -0.82432,-0.82432 -1.2,-5.79501 -1.2,-15.87756 0,-21.06834 1.82377,-21.82733 15.19035,-6.32163 4.48181,5.19905 8.63494,9.29186 9.22919,9.09512 0.63891,-0.21152 1.19746,-4.06686 1.36675,-9.43376 0.29243,-9.27035 1.12,-11.00283 4.61517,-9.66161 2.14757,0.8241 2.57008,3.78491 2.58489,18.11426 0.0127,12.34158 -0.12294,13.28791 -2.05341,14.32107 -2.94422,1.5757 -5.13475,-0.13466 -13.96527,-10.90408 -4.10722,-5.00904 -8.03017,-9.11285 -8.71767,-9.11958 -0.91127,-0.009 -1.25,2.50791 -1.25,9.28777 0,9.03066 -0.79852,11.7 -3.5,11.7 -0.605,0 -1.64,-0.54 -2.3,-1.2 z m 47.3,-0.63532 c -8.14636,-3.87123 -11.80902,-11.41769 -9.51617,-19.60691 2.3156,-8.27053 8.73501,-12.56852 18.73405,-12.54303 6.80529,0.0173 10.65773,1.66924 11.10167,4.76029 0.37054,2.58 -0.5432,2.71519 -7.49917,1.10956 -6.16661,-1.42342 -11.36972,0.50762 -14.29475,5.30523 -4.9101,8.05354 0.50948,16.81018 10.404,16.81018 3.42556,0 4.74717,-0.46183 5.53519,-1.93426 1.48882,-2.78189 1.36096,-3.05621 -1.96482,-4.21558 C 796.51716,500.93883 798.53702,497 805,497 c 5.45115,0 6,0.69374 6,7.58394 0,5.78612 -0.24271,6.52898 -2.64808,8.10504 -3.95731,2.59293 -13.87019,2.84306 -18.85192,0.4757 z M 512.75,445.42125 C 511.60653,444.27079 511.85618,438 513.04545,438 c 0.575,0 2.15,-1.10455 3.5,-2.45455 L 519,433.09091 v -23.35433 c 0,-26.19165 0.21124,-27.1201 6.04414,-26.56529 L 528.5,383.5 l 0.26761,24.81597 c 0.2444,22.66265 0.10066,25.19339 -1.65646,29.16566 -1.05824,2.39233 -3.04357,5.08321 -4.41184,5.97973 -2.87928,1.88658 -8.85265,3.06326 -9.94931,1.95989 z m 25.94945,-15.05514 C 538.31475,429.98142 538,422.59415 538,413.94996 c 0,-18.17943 -0.86482,-16.91227 11.55887,-16.93631 8.08409,-0.0156 11.78624,1.66066 9.56872,4.33262 -0.85815,1.034 -3.38278,1.66267 -7.46226,1.85821 L 545.5,403.5 v 3.5 3.5 l 6.5,0.5 c 5.7663,0.44356 6.53555,0.74998 6.81492,2.71465 0.35102,2.46855 -1.16238,3.07316 -8.81492,3.52163 -4.41575,0.25878 -4.50577,0.3333 -4.80836,3.98002 -0.34848,4.19995 0.30358,4.55177 9.30836,5.02239 4.24623,0.22192 5,0.56282 5,2.26131 0,1.84858 -0.76093,2.02141 -10.05055,2.28278 -5.52781,0.15553 -10.36531,-0.032 -10.75,-0.41667 z m 28.05055,0.0658 C 566.3375,430.011 566,422.78246 566,414.36848 c 0,-18.32079 -0.23525,-17.99155 12.17183,-17.03479 8.74663,0.67449 12.39867,2.1787 16.16926,6.65979 6.18289,7.34795 3.80624,20.23352 -4.54687,24.65184 -3.48908,1.84554 -21.60964,3.25039 -23.04422,1.78659 z m 17.89292,-6.06679 c 4.06927,-1.931 6.35708,-5.85931 6.35708,-10.9155 0,-2.82842 -0.77718,-4.42684 -3.45386,-7.10352 -3.18848,-3.18848 -3.86079,-3.43051 -8.75,-3.15 L 573.5,403.5 l -0.28684,10.41821 c -0.21094,7.66142 0.0537,10.63427 1,11.23469 2.08083,1.32025 6.72701,0.96933 10.42976,-0.78774 z m 19.5757,4.88484 c -1.29576,-3.15547 -0.42748,-30.49228 0.99982,-31.47824 2.33003,-1.60956 18.32267,-0.22387 21.9646,1.90313 9.56526,5.58642 11.43758,19.20638 3.64142,26.48909 -3.84352,3.59039 -8.4657,4.82353 -18.10584,4.83044 -6.4737,0.005 -7.90216,-0.28851 -8.5,-1.74442 z m 17.0635,-4.61198 c 5.31783,-2.2508 7.22824,-5.16514 7.14165,-10.89459 -0.0659,-4.36053 -0.50825,-5.42972 -3.26577,-7.89357 C 622.47306,403.45087 621.1008,403 616.48422,403 H 611 l -0.1697,6.25 c -0.20089,7.39857 0.19132,14.94917 0.83111,16 0.735,1.20723 6.13397,0.8638 9.62071,-0.61198 z m 17.19921,5.33178 c -0.35018,-0.56662 2.17076,-7.80794 5.60211,-16.09183 6.42205,-15.50402 7.9771,-17.51335 12.32005,-15.91904 C 658.40657,398.69426 671,425.58747 671,429.12971 671,430.4555 670.27583,431 668.51254,431 c -1.8191,0 -3.17351,-1.08678 -5.0408,-4.04476 l -2.55334,-4.04476 -6.70528,0.29476 c -6.66914,0.29317 -6.71478,0.31497 -8.46707,4.04476 -1.32633,2.82312 -2.36318,3.75 -4.1949,3.75 -1.33821,0 -2.71963,-0.46359 -3.06982,-1.0302 z m 19.32344,-12.82798 c 1.05626,-0.66994 0.98796,-1.61936 -0.35858,-4.98469 C 656.53135,409.87071 655.22496,408 654.54311,408 c -1.85364,0 -4.58969,7.55342 -3.22895,8.91416 1.28062,1.28062 4.64443,1.39861 6.49061,0.22766 z m 18.8619,13.19151 C 676.3,429.96667 676,422.7825 676,414.36852 c 0,-13.89635 0.17061,-15.38946 1.86186,-16.29459 3.15242,-1.68712 5.02066,0.73253 5.34771,6.92607 l 0.29043,5.5 h 8 8 l 0.29927,-6.30968 0.29926,-6.30969 3.20074,0.30969 3.20073,0.30968 0.27739,14.86454 c 0.29421,15.76609 -0.24213,17.99776 -4.18988,17.43372 C 700.7775,430.53965 700.43353,429.63592 700,424 l -0.5,-6.5 -5.95833,-0.30612 C 683.59552,416.68288 683,417.0624 683,423.91206 c 0,4.4338 -0.38782,6.02278 -1.58179,6.48095 -2.06815,0.79362 -3.92152,0.77035 -4.75154,-0.0597 z M 361.15933,425.25 c -0.50106,-0.9625 -1.0794,-13.675 -1.28518,-28.25 L 359.5,370.5 l 58.88784,-0.25805 c 42.66179,-0.18695 59.26317,0.0534 60.25,0.87244 1.85525,1.53972 1.95247,26.75424 0.11216,29.08962 -0.74814,0.9494 -5.46565,2.43431 -11.75,3.69849 -5.775,1.16172 -19.275,4.58878 -30,7.61569 -25.62434,7.23195 -41.54518,11.09611 -55.65789,13.5088 -14.55338,2.48803 -18.97818,2.53692 -20.18278,0.22301 z"
       id="path831"
       inkscape:connector-curvature="0" />
  </g>
</svg>
