<?xml version="1.0" encoding="UTF-8" standalone="no"?>
<!-- Created with Inkscape (http://www.inkscape.org/) -->

<svg
   xmlns:dc="http://purl.org/dc/elements/1.1/"
   xmlns:cc="http://creativecommons.org/ns#"
   xmlns:rdf="http://www.w3.org/1999/02/22-rdf-syntax-ns#"
   xmlns:svg="http://www.w3.org/2000/svg"
   xmlns="http://www.w3.org/2000/svg"
   xmlns:sodipodi="http://sodipodi.sourceforge.net/DTD/sodipodi-0.dtd"
   xmlns:inkscape="http://www.inkscape.org/namespaces/inkscape"
   width="30"
   height="20"
   viewBox="0 0 7.9374999 5.2916666"
   version="1.1"
   id="svg8"
   inkscape:version="0.92.5 (2060ec1f9f, 2020-04-08)"
   sodipodi:docname="menu-close.svg">
  <defs
     id="defs2">
    <clipPath
       clipPathUnits="userSpaceOnUse"
       id="clipPath4742">
      <path
         style="fill:#1f1f1f;fill-opacity:0.98564597;stroke:#000000;stroke-width:0.26458332px;stroke-linecap:butt;stroke-linejoin:miter;stroke-opacity:1"
         d="m 256.3918,126.32651 31.99218,90.36383 -59.86839,3.55468 0.37418,10.85114 71.65496,20.57977 22.26355,39.66279 14.78002,-6.36101 27.31492,11.03823 1.8709,-8.98025 11.78658,4.86429 6.36103,-41.53369 66.41648,-56.31368 -5.23849,-7.67064 -60.61673,19.45722 -18.89596,-38.72735 -24.69571,12.53495 -4.86431,31.61798 -13.47038,-1.4967 -55.56534,-86.99625 z"
         id="path4744"
         inkscape:connector-curvature="0" />
    </clipPath>
    <clipPath
       clipPathUnits="userSpaceOnUse"
       id="clipPath4748">
      <rect
         style="fill:#1f1f1f;fill-opacity:0.98564597;stroke-width:0.26458332"
         id="rect4750"
         width="210.21146"
         height="164.30624"
         x="234.01906"
         y="128.5042" />
    </clipPath>
  </defs>
  <sodipodi:namedview
     id="base"
     pagecolor="#ffffff"
     bordercolor="#666666"
     borderopacity="1.0"
     inkscape:pageopacity="0.0"
     inkscape:pageshadow="2"
     inkscape:zoom="22.627417"
     inkscape:cx="16.180902"
     inkscape:cy="14.04923"
     inkscape:document-units="mm"
     inkscape:current-layer="layer1"
     showgrid="true"
     width="296mm"
     units="px"
     inkscape:window-width="1908"
     inkscape:window-height="2080"
     inkscape:window-x="1924"
     inkscape:window-y="35"
     inkscape:window-maximized="0"
     showguides="false">
    <inkscape:grid
       type="xygrid"
       id="grid4579" />
  </sodipodi:namedview>
  <metadata
     id="metadata5">
    <rdf:RDF>
      <cc:Work
         rdf:about="">
        <dc:format>image/svg+xml</dc:format>
        <dc:type
           rdf:resource="http://purl.org/dc/dcmitype/StillImage" />
        <dc:title></dc:title>
      </cc:Work>
    </rdf:RDF>
  </metadata>
  <g
     inkscape:groupmode="layer"
     id="layer5"
     inkscape:label="Background"
     transform="translate(0,-206.375)" />
  <g
     inkscape:label="Foreground"
     inkscape:groupmode="layer"
     id="layer1"
     transform="translate(0,-291.70833)">
    <text
       xml:space="preserve"
       style="font-style:normal;font-weight:normal;font-size:10.58333302px;line-height:1.25;font-family:sans-serif;letter-spacing:0px;word-spacing:0px;fill:#000000;fill-opacity:1;stroke:none;stroke-width:0.26458332"
       x="-2.1251695"
       y="285.7366"
       id="text12"><tspan
         sodipodi:role="line"
         id="tspan10"
         x="-2.1251695"
         y="295.10037"
         style="font-style:normal;font-variant:normal;font-weight:normal;font-stretch:normal;font-size:50.79999924px;font-family:Ubuntu;-inkscape-font-specification:Ubuntu;fill:#000000;stroke-width:0.26458332" /></text>
    <flowRoot
       xml:space="preserve"
       id="flowRoot4571"
       style="font-style:normal;font-weight:normal;font-size:40px;line-height:1.25;font-family:sans-serif;letter-spacing:0px;word-spacing:0px;fill:#000000;fill-opacity:1;stroke:none"
       transform="matrix(0.26458333,0,0,0.26458333,0,85.33333)"><flowRegion
         id="flowRegion4573"><rect
           id="rect4575"
           width="28.991379"
           height="82.024384"
           x="675.28699"
           y="267.54858" /></flowRegion><flowPara
         id="flowPara4577" /></flowRoot>    <path
       style="fill:#111111;fill-opacity:0;stroke-width:0.70710677"
       d="M 0.81671868,400.86819 V 2.7670708 H 399.9785 799.14027 V 400.86819 798.9693 H 399.9785 0.81671868 Z"
       id="path4769"
       inkscape:connector-curvature="0"
       transform="matrix(0.26458333,0,0,0.26458333,0,85.33333)" />
    <path
       style="fill:#1f1f10;fill-opacity:0;stroke-width:0.70710677"
       d="m 430.60547,689.32468 -36.54817,-14.81794 -27.79854,11.95881 -27.79855,11.9588 -1.15678,-1.87665 c -0.63622,-1.03216 -19.53114,-34.65105 -41.9887,-74.70864 -22.45756,-40.0576 -40.88108,-72.89633 -40.94117,-72.97494 -0.0601,-0.0786 -54.50981,-15.76563 -120.99941,-34.86002 C 66.884557,494.9097 10.336144,478.6529 7.7110098,477.87787 L 2.938039,476.46873 v -23.65814 c 0,-22.26043 0.074768,-23.65813 1.2655604,-23.65813 0.6960581,0 46.7332186,-2.70469 102.3048006,-6.01041 55.57158,-3.30572 101.17789,-6.01041 101.34735,-6.01041 0.16947,0 0.15802,-0.71594 -0.0255,-1.59099 C 207.64687,414.66561 181.95838,341.8778 150.74479,253.78998 119.5312,165.70215 93.252722,91.482455 92.34817,88.857321 L 90.703531,84.08435 h 27.059949 27.05995 l 97.78354,153.09711 c 53.78093,84.20341 98.0366,153.25352 98.34591,153.44468 0.61757,0.38168 51.05366,6.11655 51.23615,5.82585 0.0621,-0.099 4.22669,-27.00667 9.25453,-59.79482 l 9.14154,-59.61482 45.96194,-23.35231 c 25.27906,-12.84377 46.19756,-23.40537 46.48554,-23.47022 0.28799,-0.0648 16.45122,32.49616 35.91832,72.35782 19.46709,39.86166 35.61893,72.69995 35.89297,72.97399 0.36812,0.36813 189.97301,-59.95646 218.10922,-69.39352 l 4.06586,-1.36371 -0.0417,24.52559 -0.0417,24.5256 -111.003,94.03077 c -61.05168,51.71692 -111.5676,94.67366 -112.25761,95.45941 -0.99545,1.13356 -3.63382,17.05612 -12.77369,77.08907 -6.3355,41.61324 -11.72399,76.65202 -11.97441,77.86398 l -0.45588,2.20354 -21.13951,-8.73696 c -11.62673,-4.80532 -21.62212,-8.8198 -22.21199,-8.92106 -0.8416,-0.14447 -1.55019,2.09929 -3.29147,10.4225 l -2.21899,10.6066 -16.22766,0.13959 -16.22766,0.1396 z m 61.54495,4.92364 c 2.19618,-0.76559 2.22688,-0.841 2.23033,-5.48007 0.002,-2.58709 -0.37441,-8.75572 -0.8363,-13.70807 -0.46189,-4.95234 -0.61457,-9.22949 -0.33929,-9.50479 0.70984,-0.70982 4.27778,0.66976 16.23338,6.27684 16.12722,7.56353 22.94274,9.46784 27.35073,7.64199 2.69839,-1.11772 3.27433,-3.30059 3.82614,-14.50165 0.22992,-4.66691 1.07518,-13.57645 1.87837,-19.79899 1.39929,-10.84071 13.62242,-92.22371 16.01782,-106.64847 l 1.15353,-6.94641 7.13082,-6.17077 c 14.7029,-12.72342 88.85889,-74.65995 165.16918,-137.95253 40.56261,-33.64305 56.66131,-47.39154 59.6453,-50.93781 1.03012,-1.22427 1.87299,-2.93473 1.87299,-3.80102 0,-1.40025 -3.74534,-8.21592 -4.51481,-8.21592 -0.16688,0 -40.98278,13.8148 -90.70203,30.69955 -123.66947,41.99835 -131.84469,44.75832 -134.03547,45.25053 -1.8026,0.405 -2.14557,0.0385 -5.72458,-6.1166 -6.01129,-10.33817 -8.68391,-15.49447 -36.19627,-69.83348 -27.73223,-54.77326 -33.46815,-65.75892 -35.97815,-68.90677 l -1.5909,-1.99518 -10.91511,5.13493 c -20.7971,9.78383 -40.20001,19.78589 -40.89248,21.07979 -0.86673,1.61951 -5.97084,25.35507 -13.85068,64.40961 -5.9406,29.44318 -11.7988,57.24783 -13.16374,62.47879 l -0.69191,2.65165 -5.80638,-4e-5 c -6.13462,-3e-5 -51.36235,-4.21419 -64.41268,-6.00174 -5.62433,-0.77038 -7.95245,-1.38895 -8.65293,-2.29905 -0.52708,-0.68482 -9.67036,-14.13213 -20.31839,-29.88294 -18.77521,-27.77268 -32.99483,-49.20988 -123.35609,-185.96908 -52.78781,-79.89286 -64.1052,-96.501167 -66.34418,-97.360345 -1.97956,-0.759629 -10.16101,4.103293 -10.16101,6.039541 0,1.655936 16.9509,48.010264 44.90093,122.787054 25.16028,67.31321 62.70766,168.59558 71.03953,191.62594 3.93956,10.88944 7.62512,20.99867 8.19013,22.46495 1.62401,4.21445 1.37231,5.35108 -1.27079,5.73877 -2.6251,0.38504 -105.146,5.29992 -164.225548,7.87301 -44.405253,1.93398 -49.545252,2.28305 -50.444123,3.42575 -1.131332,1.43823 -1.433183,4.97586 -0.714397,8.3726 0.67548,3.19209 0.859216,3.38539 4.519631,4.75493 2.098539,0.78516 13.92808,4.16245 26.287868,7.50508 65.358309,17.67577 216.604569,59.17803 224.695939,61.657 l 4.2337,1.29708 4.13462,7.39833 c 2.27404,4.06908 17.35127,32.69507 33.50496,63.61331 30.59154,58.55241 37.03766,70.4554 38.97483,71.96849 1.71188,1.33712 3.9348,0.66257 19.21644,-5.83132 21.25967,-9.03425 19.9124,-8.68487 26.19237,-6.79239 7.99875,2.41045 37.94294,13.75264 63.25664,23.9602 19.76604,7.97053 23.17293,9.1371 26.94132,9.22518 2.37264,0.0554 5.31597,-0.2485 6.54074,-0.67546 z"
       id="path4779"
       inkscape:connector-curvature="0"
       transform="matrix(0.26458333,0,0,0.26458333,0,85.33333)" />
    <text
       xml:space="preserve"
       style="font-style:normal;font-weight:normal;font-size:10.58333302px;line-height:1.25;font-family:sans-serif;letter-spacing:0px;word-spacing:0px;fill:#000000;fill-opacity:1;stroke:none;stroke-width:0.26458332"
       x="88.305847"
       y="141.90349"
       id="text4960"><tspan
         sodipodi:role="line"
         id="tspan4958"
         x="88.305847"
         y="151.26726"
         style="stroke-width:0.26458332" /></text>
    <path
       style="fill:#ffffff;fill-opacity:0.99043059;stroke-width:0.00389828"
       d="m 1.9568896,296.47104 c -0.078788,-0.0162 -0.125556,-0.10514 -0.094425,-0.17934 0.00818,-0.0195 0.096489,-0.1091 0.9639121,-0.97805 l 0.9549119,-0.95659 -0.9549119,-0.9566 c -1.0655912,-1.06748 -0.9726913,-0.96927 -0.973082,-1.02876 -3.47e-4,-0.0529 0.028145,-0.0969 0.077405,-0.11961 0.01905,-0.008 0.028785,-0.0107 0.052597,-0.0106 0.059028,1.9e-4 -0.038246,-0.0921 1.0275847,0.97434 l 0.955508,0.956 0.9555077,-0.956 c 1.0659023,-1.06645 0.9685876,-0.97418 1.027585,-0.9743 0.052932,-1.2e-4 0.096798,0.0283 0.119479,0.0776 0.00886,0.0192 0.010743,0.0286 0.010555,0.0526 -4.584e-4,0.0594 0.092404,-0.0387 -0.973117,1.02875 l -0.9549117,0.9566 0.9549117,0.9566 c 1.0655219,1.06739 0.9726544,0.96922 0.973117,1.02876 1.939e-4,0.0239 -0.00167,0.0334 -0.010555,0.0526 -0.022678,0.0492 -0.066346,0.0775 -0.119479,0.0774 -0.059283,-1.3e-4 0.038884,0.0929 -1.027585,-0.97408 l -0.9555071,-0.95609 -0.955508,0.956 c -0.8347397,0.83518 -0.9579699,0.95703 -0.9749882,0.96403 -0.023615,0.01 -0.056472,0.0135 -0.079004,0.008 z"
       id="path5302"
       inkscape:connector-curvature="0" />
  </g>
</svg>
